<?xml version="1.0" encoding="utf-8"?>
<!-- Generator: Adobe Illustrator 16.0.4, SVG Export Plug-In . SVG Version: 6.00 Build 0)  -->
<!DOCTYPE svg PUBLIC "-//W3C//DTD SVG 1.1//EN" "http://www.w3.org/Graphics/SVG/1.1/DTD/svg11.dtd">
<svg version="1.1" id="Layer_1" xmlns="http://www.w3.org/2000/svg" xmlns:xlink="http://www.w3.org/1999/xlink" x="0px" y="0px"
	 width="50px" height="50px" viewBox="0 0 50 50" enable-background="new 0 0 50 50" xml:space="preserve">
<g>
	<path fill="#FFFFFF" d="M45,25.5C45,36.822,35.822,46,24.5,46l0,0C13.178,46,4,36.822,4,25.5l0,0C4,14.178,13.178,5,24.5,5l0,0
		C35.822,5,45,14.178,45,25.5L45,25.5z"/>
	<path d="M25,47.672C12.499,47.672,2.329,37.501,2.329,25S12.499,2.329,25,2.329S47.672,12.499,47.672,25S37.501,47.672,25,47.672z
		 M25,6.527C14.814,6.527,6.527,14.814,6.527,25c0,10.187,8.287,18.473,18.473,18.473c10.187,0,18.473-8.286,18.473-18.473
		C43.473,14.814,35.187,6.527,25,6.527z"/>
</g>
<rect x="10.167" y="19.909" fill="none" width="30.478" height="9.454"/>
<text transform="matrix(1 0 0 1 10.1665 28.4287)" font-family="'MyriadPro-Regular'" font-size="12">LOGO</text>
</svg>
