<svg xmlns="http://www.w3.org/2000/svg" width="50" height="50" viewBox="0 0 50 50"><path fill="#fff" d="M45 25.5c0 11.322-9.178 20.5-20.5 20.5s-20.5-9.178-20.5-20.5 9.178-20.5 20.5-20.5 20.5 9.178 20.5 20.5z"/><path d="M25 47.672c-12.501 0-22.671-10.171-22.671-22.672s10.17-22.671 22.671-22.671 22.672 10.17 22.672 22.671-10.171 22.672-22.672 22.672zm0-41.145c-10.186 0-18.473 8.287-18.473 18.473 0 10.187 8.287 18.473 18.473 18.473 10.187 0 18.473-8.286 18.473-18.473 0-10.186-8.286-18.473-18.473-18.473z"/><path fill="none" d="M10.167 19.909h30.478v9.454h-30.478z"/><text transform="translate(10.166 28.429)" font-family="'MyriadPro-Regular'" font-size="12">LOGO</text></svg>